<svg aria-hidden="true" style="position:absolute;width:0;height:0" xmlns="http://www.w3.org/2000/svg" overflow="hidden">
<defs>
<symbol id="moon" viewBox="0 0 32 32"><path fill="currentColor" d="M17.701 32a15.97 15.97 0 0012.429-5.925c.442-.544-.04-1.339-.723-1.209-7.763 1.478-14.891-4.474-14.891-12.31 0-4.514 2.416-8.665 6.344-10.9.605-.345.453-1.262-.235-1.389-.879-.17-1.89-.267-2.923-.268-8.832 0-16 7.157-16 16 0 8.832 7.157 16 16 16z"/></symbol>
<symbol id="sun" viewBox="0 0 32 32"><path fill="currentColor" d="M16 10c-3.306 0-6 2.694-6 6s2.694 6 6 6 6-2.694 6-6-2.694-6-6-6zm15.4 5.031l-5.919-2.956L27.575 5.8c.281-.85-.525-1.656-1.369-1.369l-6.275 2.094L16.969.6c-.4-.8-1.537-.8-1.938 0l-2.956 5.919-6.281-2.094c-.85-.281-1.656.525-1.369 1.369l2.094 6.275L.6 15.032c-.8.4-.8 1.538 0 1.938l5.919 2.956-2.094 6.281c-.281.85.525 1.656 1.369 1.369l6.275-2.094 2.956 5.919c.4.8 1.538.8 1.938 0l2.956-5.919 6.275 2.094c.85.281 1.656-.525 1.369-1.369l-2.094-6.275 5.919-2.956c.813-.406.813-1.544.012-1.944zm-9.744 6.625c-3.119 3.119-8.194 3.119-11.313 0s-3.119-8.194 0-11.313c3.119-3.119 8.194-3.119 11.313 0s3.119 8.194 0 11.313z"/></symbol>
<symbol id="dollar" viewBox="0 0 18 32">
<path d="M17.527 21.932c0.019-2.532-0.982-4.534-2.978-5.948-1.542-1.089-3.413-1.657-5.222-2.202-3.77-1.143-4.863-1.745-4.863-3.547 0-2.008 2.61-2.723 4.844-2.723 1.627 0 3.499 0.506 4.661 1.256l2.305-3.569c-1.519-0.985-3.599-1.657-5.652-1.865v-3.333h-4.251v3.567c-3.779 0.831-6.16 3.301-6.16 6.668 0 2.358 0.98 4.227 2.906 5.546 1.465 1.007 3.253 1.547 4.979 2.071 3.698 1.118 5.199 1.799 5.182 4.054l-0 0.017c0 1.893-2.509 2.566-4.658 2.566-2.030 0-4.238-0.89-5.489-2.213l-3.088 2.921c1.585 1.676 3.888 2.861 6.328 3.326v3.477h4.251v-3.402c4.199-0.601 6.902-3.129 6.906-6.666z"></path>
</symbol>
</defs>
</svg>