<svg aria-hidden="true" style="position: absolute; width: 0; height: 0; overflow: hidden;" version="1.1" xmlns="http://www.w3.org/2000/svg" xmlns:xlink="http://www.w3.org/1999/xlink">
<defs>
<symbol id="icon-dollar" viewBox="0 0 18 32">
<path d="M17.527 21.932c0.019-2.532-0.982-4.534-2.978-5.948-1.542-1.089-3.413-1.657-5.222-2.202-3.77-1.143-4.863-1.745-4.863-3.547 0-2.008 2.61-2.723 4.844-2.723 1.627 0 3.499 0.506 4.661 1.256l2.305-3.569c-1.519-0.985-3.599-1.657-5.652-1.865v-3.333h-4.251v3.567c-3.779 0.831-6.16 3.301-6.16 6.668 0 2.358 0.98 4.227 2.906 5.546 1.465 1.007 3.253 1.547 4.979 2.071 3.698 1.118 5.199 1.799 5.182 4.054l-0 0.017c0 1.893-2.509 2.566-4.658 2.566-2.030 0-4.238-0.89-5.489-2.213l-3.088 2.921c1.585 1.676 3.888 2.861 6.328 3.326v3.477h4.251v-3.402c4.199-0.601 6.902-3.129 6.906-6.666z"></path>
</symbol>
</defs>
</svg>
